<?xml version="1.0" encoding="utf-8"?>
<!-- Generator: Adobe Illustrator 26.1.0, SVG Export Plug-In . SVG Version: 6.00 Build 0)  -->
<svg version="1.1" id="Capa_1" xmlns="http://www.w3.org/2000/svg" xmlns:xlink="http://www.w3.org/1999/xlink" x="0px" y="0px"
	 viewBox="0 0 1023.6 661.6" style="enable-background:new 0 0 1023.6 661.6;" xml:space="preserve">
<style type="text/css">
	.st0{fill:url(#SVGID_1_);}
	.st1{fill:url(#SVGID_00000060726718804492615550000005186397859167162016_);}
	.st2{fill:url(#SVGID_00000181088118671121482680000006649538106182400670_);}
</style>
<radialGradient id="SVGID_1_" cx="343.5648" cy="325.8975" r="314.7594" gradientTransform="matrix(1 0 0 -1 0 664)" gradientUnits="userSpaceOnUse">
	<stop  offset="0" style="stop-color:#D0E6A5"/>
	<stop  offset="0.2187" style="stop-color:#C6E6AB"/>
	<stop  offset="0.5918" style="stop-color:#ABE4BA"/>
	<stop  offset="1" style="stop-color:#86E3CE"/>
</radialGradient>
<path class="st0" d="M553.4,40.4c-1.8-9.3-14.6-10.7-18.4-2L349.6,463.7c-2.3,5.3-9.8,5.3-12,0L152.1,38.4c-3.8-8.7-16.5-7.3-18.4,2
	L19.9,636.4c-0.7,3.8,2.2,7.2,6,7.2h63.9c3,0,5.5-2.1,6-5.1l68.4-401.9h1.6l171.8,390.8c2.3,5.2,9.7,5.2,12,0l171.9-390.8h1.6
	l20.3,119.2l49.6-108.4L553.4,40.4z"/>
<radialGradient id="SVGID_00000026162497691641424000000017713698000230784659_" cx="343.5648" cy="325.8975" r="314.7594" gradientTransform="matrix(1 0 0 -1 0 664)" gradientUnits="userSpaceOnUse">
	<stop  offset="0" style="stop-color:#D0E6A5"/>
	<stop  offset="0.2187" style="stop-color:#C6E6AB"/>
	<stop  offset="0.5918" style="stop-color:#ABE4BA"/>
	<stop  offset="1" style="stop-color:#86E3CE"/>
</radialGradient>
<path style="fill:url(#SVGID_00000026162497691641424000000017713698000230784659_);" d="M577,553.8l14.4,84.8c0.5,2.9,3,5.1,6,5.1
	h63.9c3.8,0,6.7-3.5,6-7.2l-23.5-123h-48.3L577,553.8z"/>
<g>
	<g>
		
			<radialGradient id="SVGID_00000175306384267799774000000010330732190312898723_" cx="718.325" cy="324.9337" r="291.4419" gradientTransform="matrix(1 0 0 -1 0 664)" gradientUnits="userSpaceOnUse">
			<stop  offset="0" style="stop-color:#D0E6A5"/>
			<stop  offset="0.2187" style="stop-color:#C6E6AB"/>
			<stop  offset="0.5918" style="stop-color:#ABE4BA"/>
			<stop  offset="1" style="stop-color:#86E3CE"/>
		</radialGradient>
		<path style="fill:url(#SVGID_00000175306384267799774000000010330732190312898723_);" d="M582.2,492.8L516.1,638
			c-1,2.2-3.2,3.6-5.5,3.6h-66.1c-4.4,0-7.4-4.6-5.5-8.6L709.5,42.2c3.5-7.5,14.1-7.5,17.6,0L997.7,633c1.8,4-1.1,8.6-5.5,8.6h-66.1
			c-2.4,0-4.5-1.4-5.5-3.6l-66.1-145.2L582.2,492.8L582.2,492.8z M712.1,199.2L617,415.7c-2,4.5,1.3,9.5,6.2,9.5h190.2
			c4.9,0,8.2-5,6.2-9.5l-95.1-216.4C722.2,193.8,714.5,193.8,712.1,199.2z"/>
	</g>
</g>
</svg>
